<?xml version="1.0" encoding="utf-8" standalone="no"?>
<!DOCTYPE svg PUBLIC "-//W3C//DTD SVG 1.1//EN"
  "http://www.w3.org/Graphics/SVG/1.1/DTD/svg11.dtd">
<svg xmlns:xlink="http://www.w3.org/1999/xlink" width="720pt" height="216pt" viewBox="0 0 720 216" xmlns="http://www.w3.org/2000/svg" version="1.1">
 <metadata>
  <rdf:RDF xmlns:dc="http://purl.org/dc/elements/1.1/" xmlns:cc="http://creativecommons.org/ns#" xmlns:rdf="http://www.w3.org/1999/02/22-rdf-syntax-ns#">
   <cc:Work>
    <dc:type rdf:resource="http://purl.org/dc/dcmitype/StillImage"/>
    <dc:date>2023-08-26T16:34:03.904003</dc:date>
    <dc:format>image/svg+xml</dc:format>
    <dc:creator>
     <cc:Agent>
      <dc:title>Matplotlib v3.7.1, https://matplotlib.org/</dc:title>
     </cc:Agent>
    </dc:creator>
   </cc:Work>
  </rdf:RDF>
 </metadata>
 <defs>
  <style type="text/css">*{stroke-linejoin: round; stroke-linecap: butt}</style>
 </defs>
 <g id="figure_1">
  <g id="patch_1">
   <path d="M 0 216 
L 720 216 
L 720 0 
L 0 0 
z
" style="fill: #ffffff"/>
  </g>
  <g id="axes_1">
   <g id="patch_2">
    <path d="M 63.6275 154.8925 
L 709.2 154.8925 
L 709.2 10.8 
L 63.6275 10.8 
z
" style="fill: #ffffff"/>
   </g>
   <g id="matplotlib.axis_1">
    <g id="xtick_1">
     <g id="line2d_1">
      <path d="M 63.6275 154.8925 
L 63.6275 10.8 
" clip-path="url(#p7327003495)" style="fill: none; stroke: #b0b0b0; stroke-width: 0.8; stroke-linecap: square"/>
     </g>
     <g id="line2d_2">
      <defs>
       <path id="mdcfdf67812" d="M 0 0 
L 0 3.5 
" style="stroke: #000000; stroke-width: 0.8"/>
      </defs>
      <g>
       <use xlink:href="#mdcfdf67812" x="63.6275" y="154.8925" style="stroke: #000000; stroke-width: 0.8"/>
      </g>
     </g>
     <g id="text_1">
      <!-- 0 -->
      <g transform="translate(58.1275 177.16875) scale(0.22 -0.22)">
       <defs>
        <path id="TimesNewRomanPSMT-30" d="M 231 2094 
Q 231 2819 450 3342 
Q 669 3866 1031 4122 
Q 1313 4325 1613 4325 
Q 2100 4325 2488 3828 
Q 2972 3213 2972 2159 
Q 2972 1422 2759 906 
Q 2547 391 2217 158 
Q 1888 -75 1581 -75 
Q 975 -75 572 641 
Q 231 1244 231 2094 
z
M 844 2016 
Q 844 1141 1059 588 
Q 1238 122 1591 122 
Q 1759 122 1940 273 
Q 2122 425 2216 781 
Q 2359 1319 2359 2297 
Q 2359 3022 2209 3506 
Q 2097 3866 1919 4016 
Q 1791 4119 1609 4119 
Q 1397 4119 1231 3928 
Q 1006 3669 925 3112 
Q 844 2556 844 2016 
z
" transform="scale(0.015625)"/>
       </defs>
       <use xlink:href="#TimesNewRomanPSMT-30"/>
      </g>
     </g>
    </g>
    <g id="xtick_2">
     <g id="line2d_3">
      <path d="M 183.177963 154.8925 
L 183.177963 10.8 
" clip-path="url(#p7327003495)" style="fill: none; stroke: #b0b0b0; stroke-width: 0.8; stroke-linecap: square"/>
     </g>
     <g id="line2d_4">
      <g>
       <use xlink:href="#mdcfdf67812" x="183.177963" y="154.8925" style="stroke: #000000; stroke-width: 0.8"/>
      </g>
     </g>
     <g id="text_2">
      <!-- 20 -->
      <g transform="translate(172.177963 177.16875) scale(0.22 -0.22)">
       <defs>
        <path id="TimesNewRomanPSMT-32" d="M 2934 816 
L 2638 0 
L 138 0 
L 138 116 
Q 1241 1122 1691 1759 
Q 2141 2397 2141 2925 
Q 2141 3328 1894 3587 
Q 1647 3847 1303 3847 
Q 991 3847 742 3664 
Q 494 3481 375 3128 
L 259 3128 
Q 338 3706 661 4015 
Q 984 4325 1469 4325 
Q 1984 4325 2329 3994 
Q 2675 3663 2675 3213 
Q 2675 2891 2525 2569 
Q 2294 2063 1775 1497 
Q 997 647 803 472 
L 1909 472 
Q 2247 472 2383 497 
Q 2519 522 2628 598 
Q 2738 675 2819 816 
L 2934 816 
z
" transform="scale(0.015625)"/>
       </defs>
       <use xlink:href="#TimesNewRomanPSMT-32"/>
       <use xlink:href="#TimesNewRomanPSMT-30" x="50"/>
      </g>
     </g>
    </g>
    <g id="xtick_3">
     <g id="line2d_5">
      <path d="M 302.728426 154.8925 
L 302.728426 10.8 
" clip-path="url(#p7327003495)" style="fill: none; stroke: #b0b0b0; stroke-width: 0.8; stroke-linecap: square"/>
     </g>
     <g id="line2d_6">
      <g>
       <use xlink:href="#mdcfdf67812" x="302.728426" y="154.8925" style="stroke: #000000; stroke-width: 0.8"/>
      </g>
     </g>
     <g id="text_3">
      <!-- 40 -->
      <g transform="translate(291.728426 177.16875) scale(0.22 -0.22)">
       <defs>
        <path id="TimesNewRomanPSMT-34" d="M 2978 1563 
L 2978 1119 
L 2409 1119 
L 2409 0 
L 1894 0 
L 1894 1119 
L 100 1119 
L 100 1519 
L 2066 4325 
L 2409 4325 
L 2409 1563 
L 2978 1563 
z
M 1894 1563 
L 1894 3666 
L 406 1563 
L 1894 1563 
z
" transform="scale(0.015625)"/>
       </defs>
       <use xlink:href="#TimesNewRomanPSMT-34"/>
       <use xlink:href="#TimesNewRomanPSMT-30" x="50"/>
      </g>
     </g>
    </g>
    <g id="xtick_4">
     <g id="line2d_7">
      <path d="M 422.278889 154.8925 
L 422.278889 10.8 
" clip-path="url(#p7327003495)" style="fill: none; stroke: #b0b0b0; stroke-width: 0.8; stroke-linecap: square"/>
     </g>
     <g id="line2d_8">
      <g>
       <use xlink:href="#mdcfdf67812" x="422.278889" y="154.8925" style="stroke: #000000; stroke-width: 0.8"/>
      </g>
     </g>
     <g id="text_4">
      <!-- 60 -->
      <g transform="translate(411.278889 177.16875) scale(0.22 -0.22)">
       <defs>
        <path id="TimesNewRomanPSMT-36" d="M 2869 4325 
L 2869 4209 
Q 2456 4169 2195 4045 
Q 1934 3922 1679 3669 
Q 1425 3416 1258 3105 
Q 1091 2794 978 2366 
Q 1428 2675 1881 2675 
Q 2316 2675 2634 2325 
Q 2953 1975 2953 1425 
Q 2953 894 2631 456 
Q 2244 -75 1606 -75 
Q 1172 -75 869 213 
Q 275 772 275 1663 
Q 275 2231 503 2743 
Q 731 3256 1154 3653 
Q 1578 4050 1965 4187 
Q 2353 4325 2688 4325 
L 2869 4325 
z
M 925 2138 
Q 869 1716 869 1456 
Q 869 1156 980 804 
Q 1091 453 1309 247 
Q 1469 100 1697 100 
Q 1969 100 2183 356 
Q 2397 613 2397 1088 
Q 2397 1622 2184 2012 
Q 1972 2403 1581 2403 
Q 1463 2403 1327 2353 
Q 1191 2303 925 2138 
z
" transform="scale(0.015625)"/>
       </defs>
       <use xlink:href="#TimesNewRomanPSMT-36"/>
       <use xlink:href="#TimesNewRomanPSMT-30" x="50"/>
      </g>
     </g>
    </g>
    <g id="xtick_5">
     <g id="line2d_9">
      <path d="M 541.829352 154.8925 
L 541.829352 10.8 
" clip-path="url(#p7327003495)" style="fill: none; stroke: #b0b0b0; stroke-width: 0.8; stroke-linecap: square"/>
     </g>
     <g id="line2d_10">
      <g>
       <use xlink:href="#mdcfdf67812" x="541.829352" y="154.8925" style="stroke: #000000; stroke-width: 0.8"/>
      </g>
     </g>
     <g id="text_5">
      <!-- 80 -->
      <g transform="translate(530.829352 177.16875) scale(0.22 -0.22)">
       <defs>
        <path id="TimesNewRomanPSMT-38" d="M 1228 2134 
Q 725 2547 579 2797 
Q 434 3047 434 3316 
Q 434 3728 753 4026 
Q 1072 4325 1600 4325 
Q 2113 4325 2425 4047 
Q 2738 3769 2738 3413 
Q 2738 3175 2569 2928 
Q 2400 2681 1866 2347 
Q 2416 1922 2594 1678 
Q 2831 1359 2831 1006 
Q 2831 559 2490 242 
Q 2150 -75 1597 -75 
Q 994 -75 656 303 
Q 388 606 388 966 
Q 388 1247 577 1523 
Q 766 1800 1228 2134 
z
M 1719 2469 
Q 2094 2806 2194 3001 
Q 2294 3197 2294 3444 
Q 2294 3772 2109 3958 
Q 1925 4144 1606 4144 
Q 1288 4144 1088 3959 
Q 888 3775 888 3528 
Q 888 3366 970 3203 
Q 1053 3041 1206 2894 
L 1719 2469 
z
M 1375 2016 
Q 1116 1797 991 1539 
Q 866 1281 866 981 
Q 866 578 1086 336 
Q 1306 94 1647 94 
Q 1984 94 2187 284 
Q 2391 475 2391 747 
Q 2391 972 2272 1150 
Q 2050 1481 1375 2016 
z
" transform="scale(0.015625)"/>
       </defs>
       <use xlink:href="#TimesNewRomanPSMT-38"/>
       <use xlink:href="#TimesNewRomanPSMT-30" x="50"/>
      </g>
     </g>
    </g>
    <g id="xtick_6">
     <g id="line2d_11">
      <path d="M 661.379815 154.8925 
L 661.379815 10.8 
" clip-path="url(#p7327003495)" style="fill: none; stroke: #b0b0b0; stroke-width: 0.8; stroke-linecap: square"/>
     </g>
     <g id="line2d_12">
      <g>
       <use xlink:href="#mdcfdf67812" x="661.379815" y="154.8925" style="stroke: #000000; stroke-width: 0.8"/>
      </g>
     </g>
     <g id="text_6">
      <!-- 100 -->
      <g transform="translate(644.879815 177.16875) scale(0.22 -0.22)">
       <defs>
        <path id="TimesNewRomanPSMT-31" d="M 750 3822 
L 1781 4325 
L 1884 4325 
L 1884 747 
Q 1884 391 1914 303 
Q 1944 216 2037 169 
Q 2131 122 2419 116 
L 2419 0 
L 825 0 
L 825 116 
Q 1125 122 1212 167 
Q 1300 213 1334 289 
Q 1369 366 1369 747 
L 1369 3034 
Q 1369 3497 1338 3628 
Q 1316 3728 1258 3775 
Q 1200 3822 1119 3822 
Q 1003 3822 797 3725 
L 750 3822 
z
" transform="scale(0.015625)"/>
       </defs>
       <use xlink:href="#TimesNewRomanPSMT-31"/>
       <use xlink:href="#TimesNewRomanPSMT-30" x="50"/>
       <use xlink:href="#TimesNewRomanPSMT-30" x="100"/>
      </g>
     </g>
    </g>
    <g id="text_7">
     <!-- Timestamp (s) -->
     <g transform="translate(322.952344 201.150937) scale(0.22 -0.22)">
      <defs>
       <path id="TimesNewRomanPSMT-54" d="M 3703 4238 
L 3750 3244 
L 3631 3244 
Q 3597 3506 3538 3619 
Q 3441 3800 3280 3886 
Q 3119 3972 2856 3972 
L 2259 3972 
L 2259 734 
Q 2259 344 2344 247 
Q 2463 116 2709 116 
L 2856 116 
L 2856 0 
L 1059 0 
L 1059 116 
L 1209 116 
Q 1478 116 1591 278 
Q 1659 378 1659 734 
L 1659 3972 
L 1150 3972 
Q 853 3972 728 3928 
Q 566 3869 450 3700 
Q 334 3531 313 3244 
L 194 3244 
L 244 4238 
L 3703 4238 
z
" transform="scale(0.015625)"/>
       <path id="TimesNewRomanPSMT-69" d="M 928 4444 
Q 1059 4444 1151 4351 
Q 1244 4259 1244 4128 
Q 1244 3997 1151 3903 
Q 1059 3809 928 3809 
Q 797 3809 703 3903 
Q 609 3997 609 4128 
Q 609 4259 701 4351 
Q 794 4444 928 4444 
z
M 1188 2947 
L 1188 647 
Q 1188 378 1227 289 
Q 1266 200 1342 156 
Q 1419 113 1622 113 
L 1622 0 
L 231 0 
L 231 113 
Q 441 113 512 153 
Q 584 194 626 287 
Q 669 381 669 647 
L 669 1750 
Q 669 2216 641 2353 
Q 619 2453 572 2492 
Q 525 2531 444 2531 
Q 356 2531 231 2484 
L 188 2597 
L 1050 2947 
L 1188 2947 
z
" transform="scale(0.015625)"/>
       <path id="TimesNewRomanPSMT-6d" d="M 1050 2338 
Q 1363 2650 1419 2697 
Q 1559 2816 1721 2881 
Q 1884 2947 2044 2947 
Q 2313 2947 2506 2790 
Q 2700 2634 2766 2338 
Q 3088 2713 3309 2830 
Q 3531 2947 3766 2947 
Q 3994 2947 4170 2830 
Q 4347 2713 4450 2447 
Q 4519 2266 4519 1878 
L 4519 647 
Q 4519 378 4559 278 
Q 4591 209 4675 161 
Q 4759 113 4950 113 
L 4950 0 
L 3538 0 
L 3538 113 
L 3597 113 
Q 3781 113 3884 184 
Q 3956 234 3988 344 
Q 4000 397 4000 647 
L 4000 1878 
Q 4000 2228 3916 2372 
Q 3794 2572 3525 2572 
Q 3359 2572 3192 2489 
Q 3025 2406 2788 2181 
L 2781 2147 
L 2788 2013 
L 2788 647 
Q 2788 353 2820 281 
Q 2853 209 2943 161 
Q 3034 113 3253 113 
L 3253 0 
L 1806 0 
L 1806 113 
Q 2044 113 2133 169 
Q 2222 225 2256 338 
Q 2272 391 2272 647 
L 2272 1878 
Q 2272 2228 2169 2381 
Q 2031 2581 1784 2581 
Q 1616 2581 1450 2491 
Q 1191 2353 1050 2181 
L 1050 647 
Q 1050 366 1089 281 
Q 1128 197 1204 155 
Q 1281 113 1516 113 
L 1516 0 
L 100 0 
L 100 113 
Q 297 113 375 155 
Q 453 197 493 289 
Q 534 381 534 647 
L 534 1741 
Q 534 2213 506 2350 
Q 484 2453 437 2492 
Q 391 2531 309 2531 
Q 222 2531 100 2484 
L 53 2597 
L 916 2947 
L 1050 2947 
L 1050 2338 
z
" transform="scale(0.015625)"/>
       <path id="TimesNewRomanPSMT-65" d="M 681 1784 
Q 678 1147 991 784 
Q 1303 422 1725 422 
Q 2006 422 2214 576 
Q 2422 731 2563 1106 
L 2659 1044 
Q 2594 616 2278 264 
Q 1963 -88 1488 -88 
Q 972 -88 605 314 
Q 238 716 238 1394 
Q 238 2128 614 2539 
Q 991 2950 1559 2950 
Q 2041 2950 2350 2633 
Q 2659 2316 2659 1784 
L 681 1784 
z
M 681 1966 
L 2006 1966 
Q 1991 2241 1941 2353 
Q 1863 2528 1708 2628 
Q 1553 2728 1384 2728 
Q 1125 2728 920 2526 
Q 716 2325 681 1966 
z
" transform="scale(0.015625)"/>
       <path id="TimesNewRomanPSMT-73" d="M 2050 2947 
L 2050 1972 
L 1947 1972 
Q 1828 2431 1642 2597 
Q 1456 2763 1169 2763 
Q 950 2763 815 2647 
Q 681 2531 681 2391 
Q 681 2216 781 2091 
Q 878 1963 1175 1819 
L 1631 1597 
Q 2266 1288 2266 781 
Q 2266 391 1970 151 
Q 1675 -88 1309 -88 
Q 1047 -88 709 6 
Q 606 38 541 38 
Q 469 38 428 -44 
L 325 -44 
L 325 978 
L 428 978 
Q 516 541 762 319 
Q 1009 97 1316 97 
Q 1531 97 1667 223 
Q 1803 350 1803 528 
Q 1803 744 1651 891 
Q 1500 1038 1047 1263 
Q 594 1488 453 1669 
Q 313 1847 313 2119 
Q 313 2472 555 2709 
Q 797 2947 1181 2947 
Q 1350 2947 1591 2875 
Q 1750 2828 1803 2828 
Q 1853 2828 1881 2850 
Q 1909 2872 1947 2947 
L 2050 2947 
z
" transform="scale(0.015625)"/>
       <path id="TimesNewRomanPSMT-74" d="M 1031 3803 
L 1031 2863 
L 1700 2863 
L 1700 2644 
L 1031 2644 
L 1031 788 
Q 1031 509 1111 412 
Q 1191 316 1316 316 
Q 1419 316 1516 380 
Q 1613 444 1666 569 
L 1788 569 
Q 1678 263 1478 108 
Q 1278 -47 1066 -47 
Q 922 -47 784 33 
Q 647 113 581 261 
Q 516 409 516 719 
L 516 2644 
L 63 2644 
L 63 2747 
Q 234 2816 414 2980 
Q 594 3144 734 3369 
Q 806 3488 934 3803 
L 1031 3803 
z
" transform="scale(0.015625)"/>
       <path id="TimesNewRomanPSMT-61" d="M 1822 413 
Q 1381 72 1269 19 
Q 1100 -59 909 -59 
Q 613 -59 420 144 
Q 228 347 228 678 
Q 228 888 322 1041 
Q 450 1253 767 1440 
Q 1084 1628 1822 1897 
L 1822 2009 
Q 1822 2438 1686 2597 
Q 1550 2756 1291 2756 
Q 1094 2756 978 2650 
Q 859 2544 859 2406 
L 866 2225 
Q 866 2081 792 2003 
Q 719 1925 600 1925 
Q 484 1925 411 2006 
Q 338 2088 338 2228 
Q 338 2497 613 2722 
Q 888 2947 1384 2947 
Q 1766 2947 2009 2819 
Q 2194 2722 2281 2516 
Q 2338 2381 2338 1966 
L 2338 994 
Q 2338 584 2353 492 
Q 2369 400 2405 369 
Q 2441 338 2488 338 
Q 2538 338 2575 359 
Q 2641 400 2828 588 
L 2828 413 
Q 2478 -56 2159 -56 
Q 2006 -56 1915 50 
Q 1825 156 1822 413 
z
M 1822 616 
L 1822 1706 
Q 1350 1519 1213 1441 
Q 966 1303 859 1153 
Q 753 1003 753 825 
Q 753 600 887 451 
Q 1022 303 1197 303 
Q 1434 303 1822 616 
z
" transform="scale(0.015625)"/>
       <path id="TimesNewRomanPSMT-70" d="M -6 2578 
L 875 2934 
L 994 2934 
L 994 2266 
Q 1216 2644 1439 2795 
Q 1663 2947 1909 2947 
Q 2341 2947 2628 2609 
Q 2981 2197 2981 1534 
Q 2981 794 2556 309 
Q 2206 -88 1675 -88 
Q 1444 -88 1275 -22 
Q 1150 25 994 166 
L 994 -706 
Q 994 -1000 1030 -1079 
Q 1066 -1159 1155 -1206 
Q 1244 -1253 1478 -1253 
L 1478 -1369 
L -22 -1369 
L -22 -1253 
L 56 -1253 
Q 228 -1256 350 -1188 
Q 409 -1153 442 -1076 
Q 475 -1000 475 -688 
L 475 2019 
Q 475 2297 450 2372 
Q 425 2447 370 2484 
Q 316 2522 222 2522 
Q 147 2522 31 2478 
L -6 2578 
z
M 994 2081 
L 994 1013 
Q 994 666 1022 556 
Q 1066 375 1236 237 
Q 1406 100 1666 100 
Q 1978 100 2172 344 
Q 2425 663 2425 1241 
Q 2425 1897 2138 2250 
Q 1938 2494 1663 2494 
Q 1513 2494 1366 2419 
Q 1253 2363 994 2081 
z
" transform="scale(0.015625)"/>
       <path id="TimesNewRomanPSMT-20" transform="scale(0.015625)"/>
       <path id="TimesNewRomanPSMT-28" d="M 1988 -1253 
L 1988 -1369 
Q 1516 -1131 1200 -813 
Q 750 -359 506 256 
Q 263 872 263 1534 
Q 263 2503 741 3301 
Q 1219 4100 1988 4444 
L 1988 4313 
Q 1603 4100 1356 3731 
Q 1109 3363 987 2797 
Q 866 2231 866 1616 
Q 866 947 969 400 
Q 1050 -31 1165 -292 
Q 1281 -553 1476 -793 
Q 1672 -1034 1988 -1253 
z
" transform="scale(0.015625)"/>
       <path id="TimesNewRomanPSMT-29" d="M 144 4313 
L 144 4444 
Q 619 4209 934 3891 
Q 1381 3434 1625 2820 
Q 1869 2206 1869 1541 
Q 1869 572 1392 -226 
Q 916 -1025 144 -1369 
L 144 -1253 
Q 528 -1038 776 -670 
Q 1025 -303 1145 264 
Q 1266 831 1266 1447 
Q 1266 2113 1163 2663 
Q 1084 3094 967 3353 
Q 850 3613 656 3853 
Q 463 4094 144 4313 
z
" transform="scale(0.015625)"/>
      </defs>
      <use xlink:href="#TimesNewRomanPSMT-54"/>
      <use xlink:href="#TimesNewRomanPSMT-69" x="57.583984"/>
      <use xlink:href="#TimesNewRomanPSMT-6d" x="85.367188"/>
      <use xlink:href="#TimesNewRomanPSMT-65" x="163.150391"/>
      <use xlink:href="#TimesNewRomanPSMT-73" x="207.535156"/>
      <use xlink:href="#TimesNewRomanPSMT-74" x="246.451172"/>
      <use xlink:href="#TimesNewRomanPSMT-61" x="274.234375"/>
      <use xlink:href="#TimesNewRomanPSMT-6d" x="318.619141"/>
      <use xlink:href="#TimesNewRomanPSMT-70" x="396.402344"/>
      <use xlink:href="#TimesNewRomanPSMT-20" x="446.402344"/>
      <use xlink:href="#TimesNewRomanPSMT-28" x="471.402344"/>
      <use xlink:href="#TimesNewRomanPSMT-73" x="504.703125"/>
      <use xlink:href="#TimesNewRomanPSMT-29" x="543.619141"/>
     </g>
    </g>
   </g>
   <g id="matplotlib.axis_2">
    <g id="ytick_1">
     <g id="line2d_13">
      <path d="M 63.6275 154.8925 
L 709.2 154.8925 
" clip-path="url(#p7327003495)" style="fill: none; stroke: #b0b0b0; stroke-width: 0.8; stroke-linecap: square"/>
     </g>
     <g id="line2d_14">
      <defs>
       <path id="m44aea851f0" d="M 0 0 
L -3.5 0 
" style="stroke: #000000; stroke-width: 0.8"/>
      </defs>
      <g>
       <use xlink:href="#m44aea851f0" x="63.6275" y="154.8925" style="stroke: #000000; stroke-width: 0.8"/>
      </g>
     </g>
     <g id="text_8">
      <!-- 0 -->
      <g transform="translate(45.6275 162.530625) scale(0.22 -0.22)">
       <use xlink:href="#TimesNewRomanPSMT-30"/>
      </g>
     </g>
    </g>
    <g id="ytick_2">
     <g id="line2d_15">
      <path d="M 63.6275 114.866806 
L 709.2 114.866806 
" clip-path="url(#p7327003495)" style="fill: none; stroke: #b0b0b0; stroke-width: 0.8; stroke-linecap: square"/>
     </g>
     <g id="line2d_16">
      <g>
       <use xlink:href="#m44aea851f0" x="63.6275" y="114.866806" style="stroke: #000000; stroke-width: 0.8"/>
      </g>
     </g>
     <g id="text_9">
      <!-- 5 -->
      <g transform="translate(45.6275 122.504931) scale(0.22 -0.22)">
       <defs>
        <path id="TimesNewRomanPSMT-35" d="M 2778 4238 
L 2534 3706 
L 1259 3706 
L 981 3138 
Q 1809 3016 2294 2522 
Q 2709 2097 2709 1522 
Q 2709 1188 2573 903 
Q 2438 619 2231 419 
Q 2025 219 1772 97 
Q 1413 -75 1034 -75 
Q 653 -75 479 54 
Q 306 184 306 341 
Q 306 428 378 495 
Q 450 563 559 563 
Q 641 563 702 538 
Q 763 513 909 409 
Q 1144 247 1384 247 
Q 1750 247 2026 523 
Q 2303 800 2303 1197 
Q 2303 1581 2056 1914 
Q 1809 2247 1375 2428 
Q 1034 2569 447 2591 
L 1259 4238 
L 2778 4238 
z
" transform="scale(0.015625)"/>
       </defs>
       <use xlink:href="#TimesNewRomanPSMT-35"/>
      </g>
     </g>
    </g>
    <g id="ytick_3">
     <g id="line2d_17">
      <path d="M 63.6275 74.841111 
L 709.2 74.841111 
" clip-path="url(#p7327003495)" style="fill: none; stroke: #b0b0b0; stroke-width: 0.8; stroke-linecap: square"/>
     </g>
     <g id="line2d_18">
      <g>
       <use xlink:href="#m44aea851f0" x="63.6275" y="74.841111" style="stroke: #000000; stroke-width: 0.8"/>
      </g>
     </g>
     <g id="text_10">
      <!-- 10 -->
      <g transform="translate(34.6275 82.479236) scale(0.22 -0.22)">
       <use xlink:href="#TimesNewRomanPSMT-31"/>
       <use xlink:href="#TimesNewRomanPSMT-30" x="50"/>
      </g>
     </g>
    </g>
    <g id="ytick_4">
     <g id="line2d_19">
      <path d="M 63.6275 34.815417 
L 709.2 34.815417 
" clip-path="url(#p7327003495)" style="fill: none; stroke: #b0b0b0; stroke-width: 0.8; stroke-linecap: square"/>
     </g>
     <g id="line2d_20">
      <g>
       <use xlink:href="#m44aea851f0" x="63.6275" y="34.815417" style="stroke: #000000; stroke-width: 0.8"/>
      </g>
     </g>
     <g id="text_11">
      <!-- 15 -->
      <g transform="translate(34.6275 42.453542) scale(0.22 -0.22)">
       <use xlink:href="#TimesNewRomanPSMT-31"/>
       <use xlink:href="#TimesNewRomanPSMT-35" x="50"/>
      </g>
     </g>
    </g>
    <g id="text_12">
     <!-- Acq. Freq. (Hz) -->
     <g transform="translate(25.921563 152.488281) rotate(-90) scale(0.22 -0.22)">
      <defs>
       <path id="TimesNewRomanPSMT-41" d="M 2928 1419 
L 1288 1419 
L 1000 750 
Q 894 503 894 381 
Q 894 284 986 211 
Q 1078 138 1384 116 
L 1384 0 
L 50 0 
L 50 116 
Q 316 163 394 238 
Q 553 388 747 847 
L 2238 4334 
L 2347 4334 
L 3822 809 
Q 4000 384 4145 257 
Q 4291 131 4550 116 
L 4550 0 
L 2878 0 
L 2878 116 
Q 3131 128 3220 200 
Q 3309 272 3309 375 
Q 3309 513 3184 809 
L 2928 1419 
z
M 2841 1650 
L 2122 3363 
L 1384 1650 
L 2841 1650 
z
" transform="scale(0.015625)"/>
       <path id="TimesNewRomanPSMT-63" d="M 2631 1088 
Q 2516 522 2178 217 
Q 1841 -88 1431 -88 
Q 944 -88 581 321 
Q 219 731 219 1428 
Q 219 2103 620 2525 
Q 1022 2947 1584 2947 
Q 2006 2947 2278 2723 
Q 2550 2500 2550 2259 
Q 2550 2141 2473 2067 
Q 2397 1994 2259 1994 
Q 2075 1994 1981 2113 
Q 1928 2178 1911 2362 
Q 1894 2547 1784 2644 
Q 1675 2738 1481 2738 
Q 1169 2738 978 2506 
Q 725 2200 725 1697 
Q 725 1184 976 792 
Q 1228 400 1656 400 
Q 1963 400 2206 609 
Q 2378 753 2541 1131 
L 2631 1088 
z
" transform="scale(0.015625)"/>
       <path id="TimesNewRomanPSMT-71" d="M 2734 2947 
L 2734 -734 
Q 2734 -1009 2771 -1087 
Q 2809 -1166 2889 -1209 
Q 2969 -1253 3200 -1253 
L 3200 -1369 
L 1756 -1369 
L 1756 -1253 
L 1816 -1253 
Q 1991 -1253 2081 -1203 
Q 2144 -1169 2181 -1080 
Q 2219 -991 2219 -734 
L 2219 497 
Q 1934 159 1721 35 
Q 1509 -88 1281 -88 
Q 866 -88 539 290 
Q 213 669 213 1303 
Q 213 2031 644 2489 
Q 1075 2947 1684 2947 
Q 1863 2947 2013 2897 
Q 2163 2847 2281 2747 
Q 2463 2834 2628 2947 
L 2734 2947 
z
M 2219 694 
L 2219 2038 
Q 2219 2272 2158 2406 
Q 2097 2541 1940 2634 
Q 1784 2728 1588 2728 
Q 1238 2728 988 2431 
Q 738 2134 738 1531 
Q 738 953 992 653 
Q 1247 353 1606 353 
Q 1791 353 1934 433 
Q 2078 513 2219 694 
z
" transform="scale(0.015625)"/>
       <path id="TimesNewRomanPSMT-2e" d="M 800 606 
Q 947 606 1047 504 
Q 1147 403 1147 259 
Q 1147 116 1045 14 
Q 944 -88 800 -88 
Q 656 -88 554 14 
Q 453 116 453 259 
Q 453 406 554 506 
Q 656 606 800 606 
z
" transform="scale(0.015625)"/>
       <path id="TimesNewRomanPSMT-46" d="M 1309 4006 
L 1309 2341 
L 2081 2341 
Q 2347 2341 2470 2458 
Q 2594 2575 2634 2922 
L 2750 2922 
L 2750 1488 
L 2634 1488 
Q 2631 1734 2570 1850 
Q 2509 1966 2401 2023 
Q 2294 2081 2081 2081 
L 1309 2081 
L 1309 750 
Q 1309 428 1350 325 
Q 1381 247 1481 191 
Q 1619 116 1769 116 
L 1922 116 
L 1922 0 
L 103 0 
L 103 116 
L 253 116 
Q 516 116 634 269 
Q 709 369 709 750 
L 709 3488 
Q 709 3809 669 3913 
Q 638 3991 541 4047 
Q 406 4122 253 4122 
L 103 4122 
L 103 4238 
L 3256 4238 
L 3297 3306 
L 3188 3306 
Q 3106 3603 2998 3742 
Q 2891 3881 2733 3943 
Q 2575 4006 2244 4006 
L 1309 4006 
z
" transform="scale(0.015625)"/>
       <path id="TimesNewRomanPSMT-72" d="M 1038 2947 
L 1038 2303 
Q 1397 2947 1775 2947 
Q 1947 2947 2059 2842 
Q 2172 2738 2172 2600 
Q 2172 2478 2090 2393 
Q 2009 2309 1897 2309 
Q 1788 2309 1652 2417 
Q 1516 2525 1450 2525 
Q 1394 2525 1328 2463 
Q 1188 2334 1038 2041 
L 1038 669 
Q 1038 431 1097 309 
Q 1138 225 1241 169 
Q 1344 113 1538 113 
L 1538 0 
L 72 0 
L 72 113 
Q 291 113 397 181 
Q 475 231 506 341 
Q 522 394 522 644 
L 522 1753 
Q 522 2253 501 2348 
Q 481 2444 426 2487 
Q 372 2531 291 2531 
Q 194 2531 72 2484 
L 41 2597 
L 906 2947 
L 1038 2947 
z
" transform="scale(0.015625)"/>
       <path id="TimesNewRomanPSMT-48" d="M 1316 2272 
L 3284 2272 
L 3284 3484 
Q 3284 3809 3244 3913 
Q 3213 3991 3113 4047 
Q 2978 4122 2828 4122 
L 2678 4122 
L 2678 4238 
L 4491 4238 
L 4491 4122 
L 4341 4122 
Q 4191 4122 4056 4050 
Q 3956 4000 3920 3898 
Q 3884 3797 3884 3484 
L 3884 750 
Q 3884 428 3925 325 
Q 3956 247 4053 191 
Q 4191 116 4341 116 
L 4491 116 
L 4491 0 
L 2678 0 
L 2678 116 
L 2828 116 
Q 3088 116 3206 269 
Q 3284 369 3284 750 
L 3284 2041 
L 1316 2041 
L 1316 750 
Q 1316 428 1356 325 
Q 1388 247 1488 191 
Q 1622 116 1772 116 
L 1925 116 
L 1925 0 
L 109 0 
L 109 116 
L 259 116 
Q 522 116 641 269 
Q 716 369 716 750 
L 716 3484 
Q 716 3809 675 3913 
Q 644 3991 547 4047 
Q 409 4122 259 4122 
L 109 4122 
L 109 4238 
L 1925 4238 
L 1925 4122 
L 1772 4122 
Q 1622 4122 1488 4050 
Q 1391 4000 1353 3898 
Q 1316 3797 1316 3484 
L 1316 2272 
z
" transform="scale(0.015625)"/>
       <path id="TimesNewRomanPSMT-7a" d="M 2688 878 
L 2653 0 
L 128 0 
L 128 113 
L 2028 2644 
L 1091 2644 
Q 788 2644 694 2605 
Q 600 2566 541 2456 
Q 456 2300 444 2069 
L 319 2069 
L 338 2863 
L 2738 2863 
L 2738 2747 
L 819 209 
L 1863 209 
Q 2191 209 2308 264 
Q 2425 319 2497 456 
Q 2547 556 2581 878 
L 2688 878 
z
" transform="scale(0.015625)"/>
      </defs>
      <use xlink:href="#TimesNewRomanPSMT-41"/>
      <use xlink:href="#TimesNewRomanPSMT-63" x="72.216797"/>
      <use xlink:href="#TimesNewRomanPSMT-71" x="116.601562"/>
      <use xlink:href="#TimesNewRomanPSMT-2e" x="166.601562"/>
      <use xlink:href="#TimesNewRomanPSMT-20" x="191.601562"/>
      <use xlink:href="#TimesNewRomanPSMT-46" x="216.601562"/>
      <use xlink:href="#TimesNewRomanPSMT-72" x="272.216797"/>
      <use xlink:href="#TimesNewRomanPSMT-65" x="305.517578"/>
      <use xlink:href="#TimesNewRomanPSMT-71" x="349.902344"/>
      <use xlink:href="#TimesNewRomanPSMT-2e" x="399.902344"/>
      <use xlink:href="#TimesNewRomanPSMT-20" x="424.902344"/>
      <use xlink:href="#TimesNewRomanPSMT-28" x="449.902344"/>
      <use xlink:href="#TimesNewRomanPSMT-48" x="483.203125"/>
      <use xlink:href="#TimesNewRomanPSMT-7a" x="555.419922"/>
      <use xlink:href="#TimesNewRomanPSMT-29" x="599.804688"/>
     </g>
    </g>
   </g>
   <g id="line2d_21">
    <path d="M 63.6275 34.0963 
L 72.798947 34.108048 
L 74.396015 34.054367 
L 75.590458 34.09433 
L 81.970473 34.102273 
L 86.357475 34.103275 
L 88.351591 34.088738 
L 100.713522 34.081208 
L 103.105645 34.100037 
L 107.491805 34.093999 
L 107.891845 34.158588 
L 108.688352 34.096156 
L 111.080945 34.139563 
L 111.47958 34.188495 
L 112.27696 34.097913 
L 115.86618 34.10315 
L 116.663505 34.100293 
L 117.465757 34.044495 
L 118.657346 34.155986 
L 119.455053 34.095392 
L 121.449276 34.088108 
L 189.23939 34.095913 
L 189.638635 34.170559 
L 190.038609 34.058524 
L 192.033013 34.098944 
L 201.202929 34.07721 
L 201.602136 34.313185 
L 202.000077 34.101991 
L 207.183555 34.111693 
L 207.594545 33.857996 
L 207.981939 34.081084 
L 209.975733 34.088179 
L 210.773296 34.106051 
L 211.174904 34.056892 
L 211.569787 34.129443 
L 212.766518 34.100348 
L 213.1659 34.194364 
L 213.962759 34.094467 
L 214.36114 34.106855 
L 214.764729 34.004266 
L 215.158802 34.13525 
L 215.557427 34.616736 
L 215.956906 34.114912 
L 217.154518 34.062249 
L 217.553018 34.407455 
L 217.950056 34.099201 
L 218.34995 34.087273 
L 218.748298 34.536077 
L 219.545749 34.121022 
L 219.944245 34.490489 
L 220.343244 34.082024 
L 221.142322 34.065372 
L 221.565061 33.729006 
L 221.939412 34.088614 
L 223.134399 34.094096 
L 223.550146 33.75117 
L 223.931779 34.088155 
L 224.331078 34.101492 
L 224.751878 33.635859 
L 225.145905 34.314956 
L 225.945537 33.687513 
L 226.32411 34.089124 
L 229.115867 34.071899 
L 230.312915 34.078374 
L 230.710592 34.454406 
L 231.138403 33.510385 
L 231.507719 34.137575 
L 231.906807 34.457497 
L 232.305331 34.100743 
L 233.900641 34.085198 
L 234.299602 34.321799 
L 234.698224 34.082313 
L 236.293599 34.09096 
L 236.710074 33.760058 
L 237.090916 34.079741 
L 237.491355 34.05023 
L 237.906444 33.720371 
L 238.685637 34.570968 
L 239.084688 34.087547 
L 239.881666 34.09621 
L 240.292441 33.857051 
L 240.679105 34.106259 
L 244.26848 34.092306 
L 244.69097 33.614778 
L 245.06583 34.095859 
L 250.648641 34.091791 
L 259.023052 34.06802 
L 259.421221 34.186472 
L 260.218474 34.0876 
L 262.610701 34.101602 
L 263.009535 34.177428 
L 263.807329 34.10727 
L 265.003221 34.116123 
L 265.407297 34.013026 
L 266.598512 34.173523 
L 267.396644 34.07679 
L 268.592544 34.085611 
L 268.99516 34.016974 
L 269.789453 34.083429 
L 274.573589 34.098819 
L 295.707729 34.087802 
L 298.502428 34.019356 
L 299.695407 34.155245 
L 300.492592 34.08521 
L 305.277383 34.088318 
L 305.679925 34.011716 
L 306.473617 34.086965 
L 403.768652 34.088869 
L 404.167394 34.222041 
L 404.56665 34.076633 
L 408.154988 34.088654 
L 408.553386 34.277748 
L 408.952492 34.079921 
L 409.749859 34.090992 
L 410.155246 33.954555 
L 410.547248 34.093534 
L 414.136185 34.081261 
L 414.544022 33.901714 
L 414.933254 34.095673 
L 430.883516 34.082843 
L 431.283421 34.257541 
L 431.680582 34.0882 
L 436.864423 34.087359 
L 437.273047 33.892702 
L 437.661756 34.088827 
L 442.446971 34.084608 
L 445.636882 34.093724 
L 457.997849 34.08609 
L 475.542286 34.09171 
L 504.25182 34.095315 
L 504.651618 34.149451 
L 505.448841 34.080863 
L 507.441694 34.28339 
L 507.840662 34.082782 
L 510.233349 34.079006 
L 510.635847 34.004095 
L 511.030639 34.240384 
L 511.829766 34.071106 
L 513.026334 34.057952 
L 513.432612 33.894143 
L 513.821566 34.082801 
L 520.600672 34.073173 
L 522.596013 34.042315 
L 522.992469 34.356404 
L 523.391887 34.084218 
L 524.18908 34.085283 
L 528.574901 34.085072 
L 528.98704 33.822514 
L 529.372862 34.082326 
L 538.942481 34.080967 
L 542.531329 34.073947 
L 546.916996 34.086544 
L 589.581396 34.097865 
L 591.17653 34.108215 
L 593.170395 34.078716 
L 593.968013 34.09116 
L 600.348081 34.073434 
L 601.543732 34.12549 
L 602.341096 34.09639 
L 604.734003 34.076513 
L 605.929681 34.103972 
L 609.121438 34.068759 
L 609.91729 34.08367 
L 611.11484 34.049126 
L 612.30968 34.092971 
L 625.467737 34.079014 
L 654.177621 34.054342 
L 657.366644 34.077216 
L 661.752292 34.084191 
L 662.151143 34.080396 
L 662.549704 34.280596 
L 662.948582 34.088502 
L 668.131928 34.092367 
L 668.540483 33.888899 
L 668.929771 34.092345 
L 671.720624 34.08354 
L 705.612565 34.0963 
L 705.612565 34.0963 
" clip-path="url(#p7327003495)" style="fill: none; stroke: #37a13f; stroke-width: 2; stroke-linecap: square"/>
   </g>
   <g id="line2d_22">
    <path d="M 63.6275 35.697988 
L 72.00202 35.6848 
L 88.749708 35.698614 
L 89.151654 35.640315 
L 89.946159 35.696406 
L 99.117866 35.697159 
L 102.307878 35.712422 
L 104.700493 35.70113 
L 172.490698 35.695667 
L 172.894666 35.626121 
L 174.087134 35.765423 
L 174.883396 35.696856 
L 176.877301 35.696972 
L 179.668629 35.689166 
L 180.072108 35.592122 
L 180.86495 35.69484 
L 182.06126 35.704504 
L 231.906324 35.701926 
L 233.501012 35.696856 
L 238.686055 35.681231 
L 242.273676 35.698741 
L 243.470053 35.698897 
L 245.065048 35.705397 
L 247.059119 35.691992 
L 247.457416 35.788262 
L 248.255324 35.69511 
L 248.65407 35.765702 
L 249.851763 35.658183 
L 251.047028 35.688463 
L 263.408208 35.688504 
L 270.585512 35.692554 
L 276.170714 35.639407 
L 277.36452 35.723064 
L 278.960143 35.674416 
L 285.339304 35.695672 
L 290.12493 35.691051 
L 295.308304 35.700727 
L 297.701067 35.681594 
L 302.485865 35.68857 
L 318.037598 35.68331 
L 329.999723 35.694713 
L 331.595402 35.705364 
L 333.588719 35.6875 
L 402.173313 35.690815 
L 402.57193 35.842676 
L 402.971271 35.679797 
L 406.160728 35.720392 
L 407.756233 35.681673 
L 408.154567 35.69106 
L 408.560762 35.537349 
L 408.951975 35.688213 
L 415.331975 35.690543 
L 416.129722 35.6843 
L 419.718222 35.69536 
L 424.104528 35.683304 
L 426.098327 35.707662 
L 426.895612 35.686681 
L 430.085407 35.699624 
L 431.282189 35.688823 
L 461.187765 35.689746 
L 480.327164 35.686466 
L 481.124632 35.684982 
L 497.074119 35.693509 
L 498.669108 35.690204 
L 512.625815 35.672724 
L 513.42269 35.687104 
L 517.809159 35.675052 
L 524.188522 35.688704 
L 526.581183 35.681783 
L 536.948169 35.694447 
L 538.542962 35.687215 
L 542.530435 35.687896 
L 545.720587 35.680851 
L 552.498852 35.701365 
L 554.891165 35.69759 
L 560.075133 35.685672 
L 560.473593 35.761734 
L 561.271214 35.703428 
L 565.658778 35.660671 
L 566.05613 35.785202 
L 566.458383 35.636247 
L 567.253096 35.678042 
L 568.847367 35.69695 
L 571.63853 35.692068 
L 572.042091 35.620319 
L 573.233713 35.698709 
L 574.429803 35.713727 
L 576.024873 35.687095 
L 576.822064 35.710622 
L 580.012246 35.688827 
L 580.809761 35.697334 
L 583.60197 35.683331 
L 597.158396 35.681063 
L 597.955419 35.695289 
L 598.752368 35.694322 
L 599.151316 35.839927 
L 599.550623 35.682098 
L 601.544323 35.708325 
L 601.942744 35.68176 
L 602.341852 35.769073 
L 602.741101 35.674484 
L 604.334932 35.70352 
L 604.733796 35.698158 
L 605.140011 35.540235 
L 605.531442 35.688782 
L 609.12126 35.662097 
L 611.113768 35.709397 
L 612.710528 35.649179 
L 613.505975 35.689594 
L 614.702195 35.685001 
L 619.088868 35.673359 
L 623.474133 35.688415 
L 628.657979 35.685841 
L 630.651885 35.682973 
L 631.052815 35.646064 
L 631.448139 35.755342 
L 632.245623 35.695352 
L 638.227102 35.691505 
L 638.62613 35.923975 
L 639.025068 35.681248 
L 641.417341 35.670217 
L 644.20839 35.672119 
L 644.619027 35.486812 
L 645.005845 35.672039 
L 647.796663 35.685463 
L 648.19512 36.121518 
L 648.59424 35.729811 
L 649.391307 35.688451 
L 652.979889 35.687925 
L 653.384083 35.581059 
L 653.777649 35.696532 
L 654.197918 35.246752 
L 654.577438 35.638348 
L 655.372443 35.702256 
L 655.771471 35.679446 
L 656.170702 35.776226 
L 656.96708 35.690984 
L 667.733487 35.684297 
L 668.530897 35.672587 
L 676.106518 35.67844 
L 677.302754 35.680368 
L 688.068518 35.687393 
L 692.454883 35.675885 
L 697.239099 35.685616 
L 701.226802 35.697988 
L 705.61288 35.697988 
L 705.61288 35.697988 
" clip-path="url(#p7327003495)" style="fill: none; stroke: #2dd3ed; stroke-width: 2; stroke-linecap: square"/>
   </g>
   <g id="line2d_23">
    <path d="M 63.6275 34.95859 
L 66.420388 34.974058 
L 66.819203 45.858738 
L 67.218181 42.456201 
L 72.405819 42.439608 
L 73.40215 30.823015 
L 73.601917 34.950951 
L 77.591149 34.968102 
L 80.384637 34.947816 
L 83.177128 34.959435 
L 86.768083 35.068491 
L 87.167769 34.934326 
L 89.161829 34.95208 
L 91.15678 34.954293 
L 91.555825 35.073851 
L 92.758231 34.842083 
L 93.55061 34.971754 
L 96.344825 34.928614 
L 97.141225 34.971986 
L 97.546241 34.838544 
L 98.338982 34.956816 
L 106.716132 34.953811 
L 107.117282 35.334414 
L 107.515281 34.933864 
L 110.307088 34.968883 
L 112.700552 34.97617 
L 113.120754 34.543563 
L 113.498707 34.953427 
L 115.893022 34.937845 
L 116.29226 35.154747 
L 116.690574 34.950573 
L 119.084774 34.939897 
L 120.680011 34.996748 
L 121.477666 34.971335 
L 121.876646 34.964999 
L 122.286723 34.740944 
L 122.674833 35.096619 
L 123.073734 34.957918 
L 127.462961 34.953555 
L 128.260542 34.955329 
L 128.666387 34.810999 
L 129.058359 34.991215 
L 130.654163 34.953139 
L 131.053415 45.845304 
L 131.453549 42.426033 
L 132.250021 42.455275 
L 133.047846 42.463442 
L 136.63855 42.451498 
L 137.635551 30.826282 
L 137.835571 34.949693 
L 139.431992 34.943019 
L 153.39526 34.942129 
L 153.793524 35.113129 
L 154.192543 34.955936 
L 159.379098 34.965109 
L 159.785904 34.797302 
L 160.177069 34.953122 
L 165.762526 34.955567 
L 166.161455 35.147395 
L 166.560561 34.95056 
L 171.747034 34.953104 
L 172.155551 34.760509 
L 172.544819 34.986137 
L 174.140603 34.954399 
L 176.140062 34.933511 
L 176.534806 49.059388 
L 182.12347 49.004578 
L 183.316838 34.949125 
L 184.912505 34.951988 
L 185.311577 34.946965 
L 185.710675 45.850689 
L 186.109398 42.446004 
L 191.295656 42.454848 
L 192.293136 30.832122 
L 192.492554 34.956913 
L 193.290624 34.949362 
L 193.689449 49.064533 
L 196.083299 49.065389 
L 199.274822 49.06913 
L 200.471811 34.951328 
L 205.658194 34.956707 
L 208.052934 34.932261 
L 208.849888 60.202391 
L 209.248731 69.227103 
L 211.243769 69.227897 
L 211.642759 76.686042 
L 212.042451 74.925489 
L 214.036279 74.932071 
L 215.233209 74.930773 
L 217.627418 54.940029 
L 219.622534 54.93439 
L 220.820563 42.420094 
L 221.018196 45.856671 
L 222.61496 45.836749 
L 223.012763 45.863843 
L 224.209548 30.849861 
L 224.409211 35.096948 
L 225.208479 34.926931 
L 226.803177 34.950767 
L 229.995974 34.926371 
L 230.400782 34.815493 
L 231.191559 34.953951 
L 233.585435 34.949132 
L 243.160058 34.963899 
L 243.558954 52.089955 
L 244.756107 52.085321 
L 245.154827 52.183232 
L 245.953815 52.069881 
L 249.144982 52.091708 
L 250.540917 34.953007 
L 251.737755 34.957384 
L 252.14313 51.989166 
L 252.535434 52.116104 
L 254.131817 52.077341 
L 257.722354 52.091827 
L 259.118255 34.948777 
L 262.309846 34.958976 
L 269.093683 34.92388 
L 269.889978 34.957905 
L 273.480547 34.953192 
L 273.879767 52.144459 
L 274.677467 71.219485 
L 275.478481 84.322371 
L 276.27369 93.901952 
L 277.071094 101.211676 
L 277.869355 106.917137 
L 279.066122 113.531986 
L 279.464937 115.353148 
L 280.865433 114.902208 
L 284.45156 114.913435 
L 285.649407 113.050771 
L 288.042129 113.052455 
L 289.239516 111.010334 
L 290.442043 110.994572 
L 295.223897 99.532309 
L 296.419957 95.908616 
L 297.618081 91.778803 
L 298.813878 87.00498 
L 300.010558 81.459667 
L 301.208136 74.93096 
L 302.405045 67.121406 
L 302.803658 67.136033 
L 304.001068 57.637884 
L 305.197071 45.865115 
L 305.596127 45.862903 
L 306.792781 30.831152 
L 306.992679 34.942235 
L 309.78498 34.95398 
L 310.184496 49.061161 
L 310.58272 45.86222 
L 312.578335 45.841038 
L 312.976522 57.668446 
L 313.375455 54.94903 
L 315.769409 54.938806 
L 316.966642 42.438315 
L 317.165878 45.850552 
L 317.56477 57.642967 
L 317.963674 54.937676 
L 319.160214 54.953081 
L 320.359093 42.415554 
L 320.55715 45.842373 
L 323.748332 45.855758 
L 324.945407 30.808728 
L 325.144554 34.952262 
L 331.527874 34.95216 
L 331.926705 49.069526 
L 332.325551 45.856259 
L 335.118675 45.844227 
L 335.517088 60.203331 
L 337.512212 60.197169 
L 338.709386 49.055233 
L 338.908349 52.088589 
L 341.700746 52.087639 
L 343.097296 34.947379 
L 364.640233 34.949177 
L 367.034055 34.945382 
L 371.82232 34.931717 
L 375.012684 34.952322 
L 377.805638 34.952907 
L 384.189246 34.93299 
L 384.588045 45.845234 
L 384.986864 42.440519 
L 390.172628 42.487881 
L 391.170178 30.820913 
L 391.369709 34.946394 
L 392.167622 34.94783 
L 393.763482 34.953497 
L 394.162564 49.061271 
L 394.960494 49.051272 
L 396.558162 49.022286 
L 396.955254 49.065231 
L 397.353759 60.199821 
L 398.951455 60.178337 
L 399.747887 60.192793 
L 400.944716 49.054435 
L 402.9388 49.060311 
L 405.33246 49.069427 
L 406.529662 73.10912 
L 407.327251 85.693717 
L 408.125375 94.919959 
L 408.92327 101.977214 
L 409.720891 107.550205 
L 410.519568 112.053291 
L 411.716171 112.054079 
L 412.115135 114.001541 
L 414.109578 114.911997 
L 463.179108 114.910322 
L 465.572546 111.009776 
L 466.769459 111.538758 
L 467.966493 111.540213 
L 469.163251 108.759106 
L 470.359937 108.758946 
L 471.556954 106.264709 
L 472.75353 103.488646 
L 473.950145 100.380249 
L 475.147219 96.854963 
L 476.343892 92.850883 
L 477.540858 88.256354 
L 478.737617 82.92458 
L 479.934163 81.46012 
L 481.131195 73.110511 
L 481.928949 73.115051 
L 483.325435 62.626343 
L 484.523025 52.071578 
L 484.721689 54.978065 
L 485.918321 42.442984 
L 488.710999 42.447328 
L 489.708646 30.825674 
L 489.907743 34.946206 
L 491.905471 34.904457 
L 493.100589 34.933077 
L 494.695583 34.933516 
L 495.09423 45.852735 
L 495.493944 42.422336 
L 497.487978 42.435138 
L 500.678991 42.445203 
L 501.676815 30.80124 
L 501.875756 34.952285 
L 509.855444 34.931071 
L 511.849276 34.944921 
L 515.040675 34.950584 
L 515.43973 45.866064 
L 515.83873 42.440964 
L 521.024934 42.445937 
L 522.02312 30.788672 
L 522.2216 34.952157 
L 540.971651 34.947224 
L 541.769292 60.199563 
L 542.168412 60.196654 
L 542.567279 69.221443 
L 542.966169 67.132846 
L 544.562757 67.117738 
L 544.960768 76.668342 
L 546.955743 76.665431 
L 548.153568 69.20366 
L 549.349198 69.214931 
L 549.748084 67.126146 
L 550.945413 57.63186 
L 551.144911 60.191442 
L 551.543484 71.206163 
L 552.740091 71.209568 
L 554.136495 60.192399 
L 556.529963 60.202339 
L 557.726695 49.059175 
L 557.926202 52.086427 
L 558.724166 52.084972 
L 560.120315 34.950375 
L 562.115238 34.948224 
L 562.513877 49.057933 
L 562.912893 45.848812 
L 568.09938 45.842233 
L 569.295816 30.807153 
L 569.495241 34.953367 
L 579.868057 34.952555 
L 580.2665 52.081226 
L 582.660448 52.077617 
L 583.060452 62.610633 
L 583.457835 60.199451 
L 585.454502 60.173338 
L 585.852415 69.21261 
L 587.24787 54.936163 
L 588.045608 54.93722 
L 588.444594 64.929955 
L 588.843323 62.631863 
L 589.641573 81.45274 
L 590.8384 82.921415 
L 591.037732 89.468343 
L 591.83564 97.773095 
L 592.234243 96.853986 
L 593.032309 96.856981 
L 594.229684 92.84876 
L 594.428641 97.773228 
L 595.226455 97.777747 
L 596.423064 93.902227 
L 596.62306 97.772676 
L 598.018889 91.762463 
L 599.415073 90.634998 
L 600.811343 84.340699 
L 602.008657 84.337151 
L 603.205034 78.329277 
L 604.401659 71.209926 
L 604.601265 73.1134 
L 605.798354 73.10749 
L 606.99469 64.951404 
L 607.793497 64.921964 
L 608.191557 65.097265 
L 609.388494 64.931019 
L 610.585186 54.942079 
L 610.984911 54.925296 
L 612.181714 42.433406 
L 615.77126 42.461742 
L 616.184893 42.179943 
L 617.167793 30.807253 
L 617.367059 34.947773 
L 622.155309 34.920342 
L 623.351178 34.936987 
L 628.13806 34.950295 
L 630.134677 34.904208 
L 630.930643 34.944443 
L 631.728577 34.946071 
L 634.920167 34.94221 
L 639.706964 34.946399 
L 653.67145 34.918694 
L 654.866508 34.938092 
L 657.26053 34.936177 
L 658.462904 34.817087 
L 658.855707 34.943563 
L 664.839616 34.949585 
L 665.238354 34.976699 
L 665.637339 49.058498 
L 671.223917 49.036195 
L 672.419314 34.984991 
L 673.615871 34.9407 
L 680.397605 34.95461 
L 682.392969 34.928081 
L 705.529985 34.95859 
L 705.529985 34.95859 
" clip-path="url(#p7327003495)" style="fill: none; stroke: #eaba25; stroke-width: 2; stroke-linecap: square"/>
   </g>
   <g id="line2d_24">
    <path d="M 63.6275 34.891172 
L 66.019953 34.899036 
L 66.418651 43.487684 
L 69.608797 43.489619 
L 70.00815 50.811687 
L 70.411964 50.727879 
L 71.606412 50.905264 
L 72.001642 50.819263 
L 72.861492 43.356855 
L 74.855269 43.360375 
L 75.254137 48.069248 
L 76.05175 48.07353 
L 76.904363 40.330064 
L 77.302629 40.35245 
L 77.701861 44.411578 
L 78.100416 44.428657 
L 78.508832 44.256049 
L 78.898358 48.201179 
L 80.094706 48.213118 
L 80.493084 52.334509 
L 81.290756 52.328493 
L 81.973306 47.994677 
L 82.372066 48.02816 
L 82.771189 54.879553 
L 83.569115 54.87382 
L 84.19858 51.546555 
L 84.598139 51.536083 
L 84.996418 58.206573 
L 85.625836 55.100342 
L 86.024475 61.764939 
L 86.822937 61.749204 
L 87.491695 58.372019 
L 87.890546 58.365138 
L 88.288957 61.361432 
L 89.088652 61.334113 
L 89.947895 55.37165 
L 90.346231 55.373731 
L 90.745409 58.416943 
L 91.542687 58.418381 
L 92.420079 51.785757 
L 92.818421 51.792289 
L 93.731791 43.563075 
L 94.130085 43.572529 
L 94.528951 50.919878 
L 95.326402 50.920511 
L 95.963022 47.19888 
L 97.558575 47.190436 
L 98.185258 43.383363 
L 100.577837 43.378218 
L 101.432341 34.879596 
L 103.026652 34.899306 
L 103.425548 40.125517 
L 105.820078 40.080093 
L 106.217261 44.645827 
L 106.6158 44.661037 
L 107.014354 51.777442 
L 107.413061 51.772428 
L 107.812056 58.506193 
L 108.609404 58.506338 
L 109.008354 61.558904 
L 109.679642 58.130816 
L 110.078485 63.664963 
L 110.476517 63.659566 
L 110.875839 68.653443 
L 111.27471 68.646654 
L 111.672905 73.435825 
L 112.071698 73.434898 
L 112.727784 75.236423 
L 113.127221 75.230383 
L 113.975156 71.051749 
L 114.373525 73.270235 
L 115.258794 68.490084 
L 116.056153 68.493008 
L 116.698656 70.679445 
L 117.097491 70.676302 
L 117.946324 71.139223 
L 118.34389 71.148753 
L 119.198791 66.442256 
L 119.597007 66.450709 
L 120.484504 60.780551 
L 120.883196 60.781196 
L 121.738566 54.790112 
L 123.56601 54.745901 
L 123.964751 60.71603 
L 124.36365 60.713739 
L 125.221842 61.020254 
L 125.620359 60.99986 
L 126.516299 60.51138 
L 126.914841 60.506236 
L 127.313676 65.871856 
L 128.509948 65.873741 
L 128.90886 70.683741 
L 129.307665 70.681026 
L 129.706238 75.323488 
L 130.333682 73.254497 
L 130.733139 73.24715 
L 131.586225 68.798197 
L 131.984939 68.802086 
L 132.868016 66.096957 
L 134.519375 66.102276 
L 135.376565 60.763732 
L 135.775509 66.106713 
L 136.573008 66.104408 
L 137.432481 60.737511 
L 137.831011 60.740729 
L 138.72688 62.716508 
L 140.322261 62.712587 
L 140.951345 59.901616 
L 142.603188 60.039126 
L 143.001902 65.747294 
L 143.859725 60.357329 
L 144.258213 65.67285 
L 144.657014 65.668361 
L 145.055694 70.521949 
L 145.454485 70.507842 
L 146.513761 68.963481 
L 146.912422 68.956779 
L 147.311281 73.558222 
L 148.906736 73.551838 
L 149.771072 69.018996 
L 150.170273 73.554562 
L 151.053524 68.826164 
L 151.452281 73.613039 
L 152.303117 69.223172 
L 152.701514 73.623644 
L 153.56297 69.125779 
L 153.960338 73.608885 
L 154.866743 68.650436 
L 155.264753 73.353724 
L 156.13614 68.722015 
L 158.129454 68.733414 
L 158.994735 63.617809 
L 159.393179 63.622453 
L 160.283092 57.53922 
L 160.68142 57.544543 
L 161.533477 54.495846 
L 161.931759 54.503185 
L 162.790698 47.58981 
L 163.189405 51.256938 
L 164.067479 43.55905 
L 164.465715 50.84883 
L 164.86463 50.843879 
L 165.263268 57.691522 
L 165.662127 57.690478 
L 166.060871 63.309127 
L 166.460131 63.297611 
L 166.858509 68.343921 
L 167.257353 68.343164 
L 167.655864 73.249087 
L 168.054595 73.25078 
L 168.682755 75.344128 
L 169.081559 75.35407 
L 169.479846 80.580207 
L 170.115247 78.715364 
L 170.51445 78.711959 
L 171.364391 74.879335 
L 171.762977 74.879401 
L 172.647592 70.298973 
L 173.046372 70.297856 
L 174.296415 70.527887 
L 175.151696 70.92213 
L 175.550468 70.912754 
L 176.447308 65.723762 
L 176.846222 68.230415 
L 177.705737 63.103562 
L 178.105669 68.143332 
L 179.138591 60.944036 
L 180.733553 60.949 
L 181.132444 66.341518 
L 181.531111 66.332253 
L 182.403474 66.681887 
L 182.80429 66.659755 
L 183.699515 60.926223 
L 184.496806 60.932111 
L 185.128547 57.974165 
L 185.525454 57.999863 
L 186.37968 51.653405 
L 187.177385 51.651228 
L 187.576606 55.066608 
L 187.975079 55.069403 
L 188.373927 61.216928 
L 189.238097 55.167031 
L 189.635917 62.392221 
L 190.540403 55.936972 
L 190.939178 64.519662 
L 191.338038 64.516475 
L 191.736951 69.55321 
L 192.135807 69.54931 
L 192.534406 74.141252 
L 194.129678 74.139139 
L 194.766761 71.914453 
L 195.165435 71.912857 
L 196.036155 67.125866 
L 196.435492 72.159656 
L 197.395499 66.43367 
L 197.793798 66.438017 
L 198.881427 64.181967 
L 199.280006 64.185587 
L 200.147656 64.457359 
L 200.546127 64.456762 
L 201.422981 64.742094 
L 203.01802 64.739515 
L 203.416802 70.411542 
L 203.81531 70.414017 
L 204.214246 75.167315 
L 205.11117 70.50286 
L 205.509596 77.240192 
L 205.908294 77.229576 
L 206.794108 77.521829 
L 207.193003 77.519318 
L 208.084433 79.633712 
L 208.482852 79.635014 
L 209.384826 75.445023 
L 209.783299 80.003941 
L 210.182013 80.008008 
L 210.581659 83.856657 
L 210.979637 83.858937 
L 211.91296 84.509187 
L 212.311717 84.510126 
L 213.217217 80.834633 
L 213.616522 84.887376 
L 214.752896 79.459603 
L 215.15033 83.415685 
L 216.071054 79.4978 
L 216.469649 79.498116 
L 217.621705 73.020424 
L 218.419267 73.023212 
L 219.367721 67.552649 
L 219.766956 67.541183 
L 220.685904 61.634289 
L 221.084206 61.639227 
L 222.110882 60.68886 
L 222.509775 60.676802 
L 222.909146 66.645948 
L 223.869536 60.103434 
L 224.268155 68.697269 
L 225.192238 62.887697 
L 225.591134 68.544599 
L 226.787447 68.542843 
L 227.186457 73.922992 
L 227.98393 73.92274 
L 228.382422 78.913297 
L 228.781132 78.931271 
L 230.128076 78.680895 
L 231.042762 74.265018 
L 231.441755 78.950463 
L 232.595339 72.352758 
L 232.993608 77.026671 
L 233.903595 72.45555 
L 234.702081 72.443832 
L 235.099738 77.381831 
L 236.051072 72.460589 
L 236.449696 77.02571 
L 236.848518 77.025411 
L 237.829265 78.408183 
L 239.54611 78.390313 
L 239.944981 84.064531 
L 240.89322 80.013494 
L 241.291314 80.00211 
L 242.211561 75.694331 
L 243.009137 75.696732 
L 243.407662 80.44074 
L 244.359929 75.828328 
L 244.758422 75.824097 
L 245.667535 71.117184 
L 246.066322 71.116985 
L 247.213719 69.090574 
L 247.613372 69.081386 
L 248.52967 63.421142 
L 248.928372 63.423355 
L 250.078881 53.733377 
L 250.478865 53.710334 
L 250.875501 61.068566 
L 251.274441 61.063111 
L 251.67347 66.866488 
L 252.072292 66.873717 
L 253.048314 68.741934 
L 253.438169 68.829453 
L 253.836177 73.865447 
L 254.235256 73.862051 
L 254.634023 80.243842 
L 255.579073 75.751164 
L 255.977831 79.914235 
L 256.376537 79.913023 
L 256.775429 85.343676 
L 257.174272 85.340744 
L 257.57264 88.481471 
L 258.525613 84.889823 
L 258.924108 89.662208 
L 259.827464 86.528605 
L 260.226955 89.381933 
L 261.379816 84.54071 
L 261.778143 87.615325 
L 262.694497 84.172506 
L 263.093204 89.051963 
L 264.249246 84.138819 
L 264.648462 89.010036 
L 265.550785 85.81572 
L 265.949337 90.467964 
L 267.095712 85.83462 
L 267.49412 85.836589 
L 268.380537 82.435943 
L 268.778986 86.301899 
L 269.927639 81.00512 
L 270.326625 86.361703 
L 271.18341 83.225525 
L 271.582307 88.222087 
L 272.446895 85.209411 
L 272.843869 85.217562 
L 273.994749 83.897488 
L 274.393786 83.875192 
L 275.543069 78.177652 
L 275.941593 82.426205 
L 277.090489 76.484442 
L 277.489363 76.480875 
L 277.888068 80.948718 
L 278.28666 80.949904 
L 279.243445 76.439111 
L 279.641931 80.923951 
L 280.800216 74.631029 
L 281.198672 80.982409 
L 282.348155 74.7924 
L 282.747293 79.001905 
L 283.145472 79.006107 
L 284.104805 80.491149 
L 284.500668 80.507508 
L 284.899322 83.947759 
L 285.846385 79.874447 
L 286.244696 83.485884 
L 286.643153 83.489251 
L 287.59495 83.145472 
L 287.993697 83.158837 
L 288.392362 86.600352 
L 289.345562 82.80141 
L 289.743032 82.808065 
L 290.909978 76.780496 
L 291.308987 76.779857 
L 292.205165 72.313282 
L 292.603868 72.313752 
L 293.751989 64.516095 
L 294.149974 64.524836 
L 295.016542 58.874216 
L 295.414262 58.880959 
L 296.296475 59.7888 
L 296.695407 59.782124 
L 297.599037 52.967102 
L 297.999649 52.937048 
L 298.902553 53.618483 
L 301.693924 53.610047 
L 302.092677 60.897306 
L 302.890067 60.898728 
L 303.843642 53.533689 
L 304.242044 60.853733 
L 304.641085 60.848324 
L 305.039621 66.845124 
L 305.989895 60.456892 
L 306.388051 60.463629 
L 306.787051 66.579941 
L 307.185477 66.579739 
L 307.584211 71.614905 
L 308.382173 71.61147 
L 308.780676 73.708808 
L 309.72885 68.327294 
L 310.127594 68.32925 
L 310.526355 75.069736 
L 310.925055 75.031658 
L 311.874679 74.580351 
L 312.273281 74.582561 
L 313.191636 74.061952 
L 313.989154 74.060917 
L 314.914588 73.614184 
L 315.312994 73.621347 
L 316.203138 68.824821 
L 317.000745 68.824034 
L 317.621904 71.379266 
L 318.020444 71.38266 
L 318.419375 75.783848 
L 319.518321 69.176122 
L 319.912733 69.206567 
L 320.811852 66.314407 
L 321.210699 66.308641 
L 322.071491 60.95231 
L 322.868895 60.957236 
L 323.745523 54.686177 
L 324.941646 54.689061 
L 325.340193 57.878716 
L 326.216512 51.174392 
L 326.615402 57.644588 
L 327.492511 50.90383 
L 327.892025 57.75789 
L 328.289412 57.773724 
L 328.915024 54.714638 
L 329.712135 54.703366 
L 330.111002 57.864632 
L 330.50994 57.859753 
L 330.90838 63.442078 
L 332.104709 63.454444 
L 332.738766 60.613984 
L 333.136842 60.62412 
L 333.996162 54.560737 
L 334.394836 54.560692 
L 335.281394 54.272412 
L 336.079916 54.258244 
L 336.477822 60.518991 
L 336.876221 60.522397 
L 337.508501 57.531686 
L 337.907067 63.349581 
L 338.757043 57.758654 
L 339.156265 57.751692 
L 339.554982 63.509383 
L 340.351991 63.520082 
L 340.750886 71.028869 
L 346.545163 70.974153 
L 348.207354 71.036452 
L 349.309584 63.527105 
L 350.107147 63.52874 
L 350.975339 57.737628 
L 353.039056 57.715078 
L 353.438576 63.650742 
L 354.300689 57.938591 
L 355.098282 57.931471 
L 355.971715 51.289974 
L 357.165552 51.32906 
L 357.56509 54.722415 
L 358.760501 54.73357 
L 359.159216 57.857173 
L 360.026167 51.298957 
L 360.42517 51.296385 
L 361.305189 43.579453 
L 361.703831 51.11503 
L 362.102328 51.113928 
L 362.50088 58.161944 
L 362.899766 58.167047 
L 363.298613 63.801006 
L 364.096217 63.796828 
L 364.730538 60.988635 
L 365.926747 60.987206 
L 366.556146 63.860239 
L 366.954818 63.855681 
L 367.35365 69.18928 
L 369.018627 69.093533 
L 369.921116 68.645031 
L 370.320393 68.619501 
L 371.178202 68.903486 
L 371.576995 68.896177 
L 371.975445 73.364515 
L 373.172427 73.357849 
L 373.57023 75.474415 
L 374.440862 71.108335 
L 374.83914 71.103482 
L 375.728639 70.844416 
L 376.127444 70.847992 
L 376.986388 71.678042 
L 377.38427 71.691187 
L 378.243256 66.997548 
L 378.640071 67.019167 
L 379.525356 64.182601 
L 379.923439 64.183895 
L 380.779336 64.618082 
L 381.178242 64.604272 
L 381.576832 69.571487 
L 381.975599 69.56827 
L 382.608015 71.840374 
L 383.007678 71.81291 
L 383.40546 76.683738 
L 384.268555 72.517635 
L 384.667723 76.63206 
L 385.611855 71.683859 
L 386.011099 76.617881 
L 386.808232 76.628655 
L 391.647147 76.805079 
L 392.582993 71.96329 
L 392.981935 71.961199 
L 394.237925 72.163195 
L 395.583628 71.977253 
L 395.979307 77.50386 
L 396.610403 75.513948 
L 397.009038 79.320834 
L 397.912508 75.077695 
L 398.311093 79.909444 
L 399.162519 76.194422 
L 399.561235 82.175112 
L 400.440383 78.437935 
L 400.838942 82.252319 
L 401.238129 82.252206 
L 401.636852 87.357732 
L 402.515346 84.166279 
L 402.913974 89.069581 
L 403.841535 85.714076 
L 404.240221 90.388555 
L 405.254099 86.611054 
L 405.652689 91.16639 
L 406.506824 88.479682 
L 406.905371 92.808606 
L 407.883436 89.532863 
L 408.28299 89.529824 
L 409.431826 88.316489 
L 409.828488 88.328778 
L 410.720024 85.14111 
L 411.119195 88.70577 
L 412.264912 83.806548 
L 412.663824 83.809639 
L 413.818436 82.3328 
L 415.765938 82.32979 
L 417.31443 82.450955 
L 418.865191 82.475958 
L 419.264235 87.558312 
L 420.212939 83.895981 
L 420.611593 83.900919 
L 421.010335 87.572005 
L 421.963718 83.877972 
L 422.362034 88.902791 
L 422.761386 88.899323 
L 423.710478 90.123682 
L 425.657568 90.155145 
L 426.823853 85.336984 
L 427.222605 88.85373 
L 428.377603 83.914147 
L 428.776788 88.81373 
L 429.923954 83.921489 
L 430.322781 88.851839 
L 430.722137 88.84413 
L 431.672223 90.072948 
L 435.190605 90.000114 
L 436.345307 85.237964 
L 436.744885 88.763679 
L 437.143143 88.765674 
L 438.091426 89.975708 
L 441.589378 89.987579 
L 442.74548 85.215405 
L 443.144676 85.209021 
L 444.301525 79.673171 
L 444.698347 85.192313 
L 445.852348 79.670426 
L 446.251434 85.170433 
L 446.649927 85.171998 
L 447.598905 86.511034 
L 451.098425 86.499441 
L 452.249554 84.690606 
L 453.046764 84.693115 
L 453.445017 88.414895 
L 453.8438 88.422779 
L 454.996219 83.426922 
L 455.394275 87.152898 
L 456.546073 81.967709 
L 456.944798 85.304961 
L 458.095368 79.83526 
L 458.495437 83.241944 
L 459.641465 77.463434 
L 461.593109 77.411464 
L 462.87281 77.346809 
L 463.271405 81.16127 
L 464.24209 76.555769 
L 464.642154 80.885817 
L 465.039705 80.897407 
L 465.990197 82.26066 
L 467.65825 82.363151 
L 468.512995 83.518778 
L 468.911415 83.552336 
L 469.310305 88.098972 
L 470.458152 83.092456 
L 470.856841 86.584495 
L 471.730119 83.346504 
L 472.128818 86.592876 
L 473.00627 83.332798 
L 473.404631 86.740193 
L 474.340785 83.075494 
L 474.739855 86.359002 
L 475.872413 81.193494 
L 476.270675 84.862537 
L 477.15627 81.366922 
L 477.554431 84.659932 
L 478.569407 80.150655 
L 478.972557 84.956173 
L 480.056309 79.950144 
L 480.454853 79.951506 
L 481.364593 79.556881 
L 481.762317 79.562012 
L 482.637859 79.832888 
L 483.036545 79.833949 
L 483.936388 79.450767 
L 484.335125 79.448557 
L 485.213034 75.446724 
L 485.611534 77.507109 
L 486.520053 73.006396 
L 486.918363 77.493546 
L 487.774242 73.479299 
L 488.172642 73.480986 
L 489.235658 66.852699 
L 489.633851 66.851941 
L 490.032569 69.342547 
L 490.892138 64.366931 
L 491.290511 64.374224 
L 492.200439 61.086056 
L 492.599261 61.082917 
L 493.450533 61.933654 
L 493.848991 61.927758 
L 494.247668 67.214366 
L 494.886716 64.566272 
L 495.285441 64.574934 
L 496.590546 64.307775 
L 496.989129 69.466065 
L 497.388374 69.461946 
L 497.786497 74.142606 
L 498.422562 71.927295 
L 498.820987 71.928304 
L 499.219999 76.446008 
L 499.851977 74.393435 
L 500.250542 74.400192 
L 501.171837 69.381109 
L 501.569806 69.392551 
L 502.434014 64.373293 
L 503.23255 64.357599 
L 504.11591 58.46239 
L 504.514217 66.713403 
L 505.391253 61.205663 
L 505.790094 66.814113 
L 506.675222 61.21072 
L 507.073943 61.210371 
L 507.472472 64.042027 
L 508.36972 57.92645 
L 509.565614 57.925161 
L 509.964706 60.956169 
L 510.36342 60.954223 
L 510.762252 67.556786 
L 511.160582 67.555321 
L 511.559265 74.615113 
L 512.654055 67.840316 
L 513.05256 72.907289 
L 513.939239 68.068853 
L 514.336941 75.325217 
L 514.735634 75.322938 
L 515.372966 77.729873 
L 516.568768 77.73329 
L 516.96773 82.260489 
L 517.605664 80.318059 
L 518.00422 84.129112 
L 518.980694 79.853739 
L 519.378887 85.316151 
L 520.500308 80.0752 
L 520.899265 83.803727 
L 521.807353 80.027165 
L 522.206152 80.025673 
L 523.357779 73.645101 
L 523.756213 73.647665 
L 524.674924 68.566226 
L 525.871139 68.5724 
L 526.849923 62.095693 
L 527.230456 62.314468 
L 528.545931 62.376553 
L 529.695087 59.217868 
L 530.093858 59.219456 
L 531.394748 58.977141 
L 532.590788 58.977154 
L 532.989467 67.406467 
L 533.388428 67.424014 
L 533.78793 72.384782 
L 534.983522 72.390138 
L 535.906822 67.098 
L 536.3042 67.113061 
L 537.197217 61.466761 
L 537.596113 64.284358 
L 538.479926 58.438304 
L 538.878049 65.229242 
L 539.675712 65.228646 
L 540.07409 69.528464 
L 541.193789 61.525271 
L 541.594396 61.4971 
L 542.487281 55.082795 
L 542.885932 61.816185 
L 543.284724 61.815124 
L 543.683437 67.462302 
L 544.082317 67.441313 
L 544.481098 72.384022 
L 544.879934 72.378491 
L 545.517736 70.050196 
L 545.921423 69.998603 
L 546.883151 63.944994 
L 547.281707 69.49936 
L 547.680761 69.499973 
L 548.482356 70.429407 
L 548.881321 70.424723 
L 549.279609 75.317915 
L 549.678601 75.314007 
L 550.597492 75.033869 
L 553.578621 75.081191 
L 553.977708 79.235255 
L 556.086222 79.28871 
L 556.980311 75.122693 
L 557.378804 79.594865 
L 558.299618 75.23254 
L 558.698168 79.638116 
L 559.585419 75.572407 
L 559.984066 75.583038 
L 560.877768 70.984963 
L 561.276518 70.988881 
L 562.173642 65.812758 
L 562.571878 71.517362 
L 563.464752 66.443948 
L 563.863653 71.754928 
L 564.262272 71.756627 
L 565.181066 72.508242 
L 565.579973 72.512408 
L 565.978246 79.364191 
L 566.911156 74.866794 
L 567.309961 79.144291 
L 568.235998 74.679103 
L 568.634368 80.932013 
L 569.034229 80.924441 
L 569.431988 84.68839 
L 570.231182 84.675312 
L 571.180721 80.675627 
L 571.579792 84.701161 
L 572.497097 80.956461 
L 572.895892 84.562632 
L 573.893453 80.177591 
L 574.2928 85.343851 
L 575.481485 79.576448 
L 575.880318 83.094712 
L 576.785612 79.265378 
L 577.184174 82.873402 
L 578.339058 76.961155 
L 578.737925 76.956424 
L 579.655942 72.299179 
L 580.054444 76.784331 
L 580.851885 76.780359 
L 581.805605 71.762011 
L 582.204995 71.753731 
L 583.101564 66.668723 
L 583.500151 66.667144 
L 585.011506 66.482103 
L 586.276433 66.615802 
L 587.150468 61.13352 
L 587.549261 63.768083 
L 587.947569 63.778925 
L 588.346276 68.942215 
L 589.243797 63.481237 
L 589.642218 63.478326 
L 590.040771 68.882012 
L 590.439784 68.880241 
L 590.838314 73.556901 
L 591.237279 73.554525 
L 591.635721 77.596755 
L 592.731604 71.319984 
L 593.130048 75.592662 
L 594.008536 71.157226 
L 594.407271 75.976672 
L 594.805879 75.99067 
L 595.426003 78.047226 
L 595.825249 78.044067 
L 596.697191 78.518183 
L 597.095822 78.529467 
L 597.493993 82.036129 
L 598.385841 78.210555 
L 598.784683 81.906357 
L 599.66303 78.164754 
L 600.061738 81.683262 
L 600.921659 78.067167 
L 601.320115 78.070531 
L 602.181309 74.071113 
L 602.580354 76.150235 
L 603.502577 71.354437 
L 603.902798 75.452123 
L 604.766377 71.142827 
L 605.165238 71.14519 
L 606.095161 65.60756 
L 607.746109 65.614913 
L 608.618927 66.018402 
L 609.017711 66.011682 
L 609.866013 60.772355 
L 611.06217 60.774602 
L 611.695707 57.780283 
L 612.094631 57.776898 
L 612.938047 51.586737 
L 614.134182 51.613735 
L 614.53449 54.8607 
L 615.386867 48.115644 
L 615.785793 54.787226 
L 616.69511 47.109896 
L 619.485447 47.124878 
L 621.083951 47.066704 
L 621.709844 43.259532 
L 622.108956 50.701969 
L 622.95588 43.455143 
L 623.354474 51.133493 
L 624.152126 51.129649 
L 624.550702 54.459696 
L 626.544321 54.446277 
L 626.943516 57.573503 
L 628.139517 57.57353 
L 628.997908 51.110189 
L 629.39684 51.102904 
L 630.272076 47.284153 
L 630.670744 47.286431 
L 631.069472 54.319526 
L 631.697406 50.978116 
L 633.291544 50.991503 
L 633.69007 57.463133 
L 634.318886 54.318221 
L 634.717643 61.334379 
L 635.116236 61.341169 
L 635.514889 66.564086 
L 635.913957 66.565943 
L 636.312403 72.287352 
L 636.942224 70.010418 
L 637.341033 70.010567 
L 638.206216 65.064692 
L 638.604665 65.064228 
L 639.003698 67.557086 
L 639.800985 67.560414 
L 640.199692 72.186352 
L 641.057085 67.570951 
L 641.455537 67.571655 
L 642.389489 66.783145 
L 642.788639 66.784014 
L 643.640966 67.077266 
L 644.040206 67.066736 
L 645.001493 65.881255 
L 645.797055 65.888674 
L 646.196654 70.146827 
L 646.595062 70.144726 
L 647.222168 72.32499 
L 647.621162 72.321175 
L 648.019769 76.693085 
L 648.878171 72.57798 
L 649.675379 72.581062 
L 650.53577 70.31473 
L 650.935001 70.311982 
L 651.814531 65.226014 
L 652.212791 67.754806 
L 653.065233 62.67289 
L 653.463222 67.766703 
L 653.861468 67.766107 
L 654.666273 68.571682 
L 656.313811 68.513049 
L 657.198399 68.086372 
L 657.59794 68.073183 
L 657.998223 72.587773 
L 658.395474 72.610524 
L 659.022203 70.394129 
L 659.819346 70.395259 
L 660.44991 72.53942 
L 660.848432 72.538497 
L 661.701466 73.288738 
L 662.099655 73.29166 
L 663.380745 73.012421 
L 664.224488 68.634563 
L 664.623235 68.658343 
L 665.466981 63.76172 
L 665.865265 63.765256 
L 666.719029 58.184892 
L 667.915256 58.186248 
L 668.313866 63.730326 
L 669.165595 58.165898 
L 669.56402 64.362546 
L 670.497182 57.815786 
L 670.895686 63.352502 
L 671.748225 57.713868 
L 672.146779 63.272465 
L 672.545618 63.266453 
L 672.946661 68.814529 
L 673.343173 68.836695 
L 673.741763 73.235325 
L 674.141026 73.227464 
L 674.539262 77.179451 
L 674.937918 77.179525 
L 675.337356 81.126018 
L 676.187346 77.538 
L 676.586135 77.53788 
L 677.492484 73.066744 
L 677.890959 73.065408 
L 678.736669 68.671173 
L 679.134247 71.005019 
L 679.980912 66.373319 
L 680.379237 66.374869 
L 681.285188 60.467727 
L 681.683849 60.47031 
L 682.531726 54.546509 
L 682.930143 57.636714 
L 683.775337 51.371316 
L 684.174002 51.36464 
L 685.067569 43.406054 
L 685.466231 47.273383 
L 687.061333 47.267961 
L 687.690513 43.416358 
L 689.684613 43.410796 
L 690.310306 39.333569 
L 691.505693 39.351914 
L 692.135711 34.883343 
L 698.116618 34.882215 
L 705.692464 34.891172 
L 705.692464 34.891172 
" clip-path="url(#p7327003495)" style="fill: none; stroke: #e04f36; stroke-width: 2; stroke-linecap: square"/>
   </g>
   <g id="patch_3">
    <path d="M 63.6275 154.8925 
L 63.6275 10.8 
" style="fill: none; stroke: #000000; stroke-width: 0.8; stroke-linejoin: miter; stroke-linecap: square"/>
   </g>
   <g id="patch_4">
    <path d="M 709.2 154.8925 
L 709.2 10.8 
" style="fill: none; stroke: #000000; stroke-width: 0.8; stroke-linejoin: miter; stroke-linecap: square"/>
   </g>
   <g id="patch_5">
    <path d="M 63.6275 154.8925 
L 709.2 154.8925 
" style="fill: none; stroke: #000000; stroke-width: 0.8; stroke-linejoin: miter; stroke-linecap: square"/>
   </g>
   <g id="patch_6">
    <path d="M 63.6275 10.8 
L 709.2 10.8 
" style="fill: none; stroke: #000000; stroke-width: 0.8; stroke-linejoin: miter; stroke-linecap: square"/>
   </g>
  </g>
 </g>
 <defs>
  <clipPath id="p7327003495">
   <rect x="63.6275" y="10.8" width="645.5725" height="144.0925"/>
  </clipPath>
 </defs>
</svg>
